<?xml version="1.0" standalone="no"?>
<!DOCTYPE svg PUBLIC "-//W3C//DTD SVG 20010904//EN"
 "http://www.w3.org/TR/2001/REC-SVG-20010904/DTD/svg10.dtd">
<svg version="1.0" xmlns="http://www.w3.org/2000/svg"
 width="700.000000pt" height="700.000000pt" viewBox="0 0 700.000000 700.000000"
 preserveAspectRatio="xMidYMid meet">
<metadata>
Created by potrace 1.11, written by Peter Selinger 2001-2013
</metadata>
<g transform="translate(0.000000,700.000000) scale(0.100000,-0.100000)"
fill="#000000" stroke="none">
<path d="M3250 5584 c-359 -45 -651 -156 -948 -361 -94 -64 -116 -82 -206
-163 -371 -334 -600 -766 -676 -1274 -14 -94 -17 -165 -14 -316 2 -107 5 -204
7 -215 2 -11 7 -45 11 -75 5 -30 17 -93 28 -140 11 -47 21 -92 23 -100 20 -87
99 -287 157 -400 53 -103 176 -290 232 -355 l34 -40 121 120 c66 66 121 125
121 131 0 6 -7 17 -16 25 -33 27 -149 216 -204 333 -89 187 -149 397 -154 531
l-1 40 657 0 657 1 170 169 c94 94 171 172 171 175 0 3 -368 5 -818 4 -449 0
-823 2 -830 4 -35 12 45 343 127 527 153 342 412 630 732 813 422 241 933 296
1399 150 156 -49 347 -145 482 -241 41 -30 80 -57 87 -61 8 -5 55 35 134 114
l122 121 -40 35 c-57 51 -246 174 -345 227 -182 96 -457 187 -645 212 -185 26
-415 29 -575 9z"/>
<path d="M4975 4730 l-119 -119 28 -38 c200 -272 301 -517 353 -858 10 -63 10
-352 0 -427 -13 -100 -45 -241 -77 -338 -31 -94 -109 -272 -141 -320 -143
-220 -167 -250 -299 -380 -271 -266 -593 -424 -996 -487 -64 -10 -364 -10
-434 0 -309 43 -562 141 -794 306 -43 31 -84 60 -92 66 -11 7 -43 -19 -136
-113 l-123 -123 40 -35 c102 -89 330 -225 490 -294 28 -11 59 -25 70 -30 75
-34 323 -100 425 -114 133 -18 181 -21 355 -20 171 1 268 10 405 39 14 3 36 7
50 10 84 16 305 93 415 146 643 305 1088 912 1187 1618 13 99 18 397 8 486 -5
39 -12 93 -15 120 -20 164 -98 411 -188 595 -72 149 -258 430 -285 430 -4 0
-61 -54 -127 -120z"/>
</g>
</svg>
