<?xml version="1.0" encoding="UTF-8"?>
<svg width="1600px" height="800px" viewBox="0 0 1600 800" version="1.1" xmlns="http://www.w3.org/2000/svg" xmlns:xlink="http://www.w3.org/1999/xlink">
    <!-- Generator: Sketch 63.1 (92452) - https://sketch.com -->
    <title>OF D Long</title>
    <desc>Created with Sketch.</desc>
    <g id="OF-D-Long" stroke="none" stroke-width="1" fill="none" fill-rule="evenodd">
        <g id="Openflow" transform="translate(203.000000, 260.000000)" fill="#FFFFFF">
            <path d="M280,140 C280,217.319865 217.319865,280 140,280 C105.540188,280 73.9882575,267.549879 49.5969805,246.90241 L66.1649515,230.334489 C86.2767519,246.792456 111.985253,256.666667 140,256.666667 C204.433221,256.666667 256.666667,204.433221 256.666667,140 C256.666667,111.985253 246.792456,86.2767519 230.334489,66.1649515 L246.903256,49.5979798 C267.550219,73.9891192 280,105.540659 280,140 Z M140,0 C174.459812,0 206.011743,12.4501206 230.40302,33.0975896 L213.835049,49.6655107 C193.723248,33.2075442 168.014747,23.3333333 140,23.3333333 C79.504403,23.3333333 29.7630447,69.3777027 23.9094158,128.332951 L135.167,128.333 L111.835,151.666 L23.9094158,151.667049 C26.239193,175.131569 35.5211584,196.550897 49.6663295,213.836049 L33.0975896,230.40302 C12.4501206,206.011743 0,174.459812 0,140 C0,62.680135 62.680135,0 140,0 Z" id="Combined-Shape"></path>
            <path d="M381.685539,196.798345 C391.757516,196.798345 400.974325,194.403999 409.335967,189.615305 C417.697608,184.826612 424.301404,178.182696 429.147356,169.683557 C433.993307,161.184419 436.416283,152.051017 436.416283,142.283351 C436.416283,132.579111 434.009143,123.540848 429.194865,115.168563 C424.380587,106.796277 417.681772,100.168218 409.09842,95.2843847 C400.515068,90.4005515 391.345768,87.958635 381.59052,87.958635 C368.097871,87.958635 356.157194,92.6521889 345.768488,102.039297 C333.922829,112.821786 328,126.299897 328,142.47363 C328,157.569114 333.241862,170.397104 343.725587,180.957601 C354.209312,191.518097 366.862629,196.798345 381.685539,196.798345 Z M381.875576,172.632885 C373.767318,172.632885 367.068503,169.842123 361.779131,164.2606 C356.489759,158.679076 353.845074,151.38504 353.845074,142.37849 C353.845074,133.625646 356.521432,126.442606 361.87415,120.829369 C367.226867,115.216132 373.925682,112.409514 381.970595,112.409514 C390.205545,112.409514 396.967705,115.184419 402.257077,120.73423 C407.546449,126.28404 410.191135,133.498794 410.191135,142.37849 C410.191135,151.258187 407.498939,158.52051 402.114549,164.16546 C396.730159,169.81041 389.983834,172.632885 381.875576,172.632885 Z M483.355497,232 L483.355497,183.193382 C488.423159,188.013788 493.522493,191.486384 498.6535,193.611169 C503.784507,195.735953 509.327262,196.798345 515.281764,196.798345 C528.647721,196.798345 540.208324,191.613237 549.963573,181.24302 C559.718821,170.872802 564.596445,157.981386 564.596445,142.568769 C564.596445,126.585315 559.877185,113.487763 550.438666,103.276112 C541.000146,93.0644605 529.534562,87.958635 516.041914,87.958635 C509.834028,87.958635 504.006218,89.1320234 498.558481,91.4788004 C493.110745,93.8255774 488.043084,97.3457428 483.355497,102.039297 L483.355497,102.039297 L483.355497,90.622544 L457.605442,90.622544 L457.605442,232 L483.355497,232 Z M510.62585,173.013444 C502.454246,173.013444 495.676249,170.175112 490.291859,164.498449 C484.907468,158.821786 482.215273,151.38504 482.215273,142.188211 C482.215273,133.181661 484.907468,125.887625 490.291859,120.306101 C495.676249,114.724578 502.454246,111.933816 510.62585,111.933816 C518.734109,111.933816 525.44876,114.772148 530.769805,120.448811 C536.090849,126.125474 538.751372,133.403654 538.751372,142.283351 C538.751372,151.226474 536.04334,158.583937 530.627277,164.355739 C525.211214,170.127542 518.544071,173.013444 510.62585,173.013444 Z M636.14549,196.798345 C646.597542,196.798345 655.624314,194.943123 663.225806,191.232678 C670.827299,187.522234 677.351913,181.798001 682.799649,174.059979 L682.799649,174.059979 L660.945359,163.784902 C653.977324,170.571527 645.647356,173.96484 635.955453,173.96484 C627.847195,173.96484 621.180053,171.792485 615.954027,167.447777 C610.728001,163.103068 607.513203,157.251982 606.309634,149.894519 L606.309634,149.894519 L689.640992,149.894519 L689.736011,144.94726 C689.736011,127.82213 684.636676,114.042744 674.438007,103.6091 C664.239339,93.1754567 651.000073,87.958635 634.720211,87.958635 C619.390535,87.958635 606.642199,93.1754567 596.475203,103.6091 C586.308207,114.042744 581.224709,127.156153 581.224709,142.949328 C581.224709,158.361944 586.324044,171.189935 596.522712,181.433299 C606.721381,191.676663 619.928974,196.798345 636.14549,196.798345 Z M663.605881,129.439504 L607.449857,129.439504 C610.363763,123.033437 613.531051,118.561875 616.951723,116.024819 C622.399459,111.965529 628.734036,109.935884 635.955453,109.935884 C642.606759,109.935884 648.450406,111.743537 653.486395,115.358842 C658.522383,118.974147 661.895545,123.667701 663.605881,129.439504 L663.605881,129.439504 Z M736.485188,194.134436 L736.485626,151.928517 C736.500239,141.502543 736.880167,134.703895 737.625411,131.532575 C739.082364,125.316787 741.695377,120.448811 745.46445,116.928645 C749.233524,113.40848 753.74691,111.648397 759.004608,111.648397 C763.058737,111.648397 766.463573,112.710789 769.219113,114.835574 C771.974654,116.960358 773.9067,120.052396 775.015251,124.111686 C776.123802,128.170976 776.678078,136.384695 776.678078,148.752844 L776.678078,194.134436 L802.333114,194.134436 L802.333114,125.729059 C802.333114,113.804895 799.32419,104.798345 793.306342,98.7094105 C786.14827,91.5422268 777.438227,87.958635 767.176212,87.958635 C762.171897,87.958635 757.278436,88.9258876 752.495831,90.860393 C747.713225,92.7948983 742.376344,96.2357808 736.485188,101.18304 L736.485188,101.18304 L736.485188,90.622544 L710.640114,90.622544 L710.640114,194.134436 L736.485188,194.134436 Z M850.222515,194.134436 L850.222515,112.694933 L866.660742,112.694933 L866.660742,90.622544 L850.222515,90.622544 L850.317533,77.6835574 C850.317533,74.7025164 850.8243,72.7362978 851.837832,71.7849018 C853.231439,70.5163737 855.448541,69.8821096 858.489138,69.8821096 C860.896277,69.8821096 863.968547,70.4212341 867.705947,71.4994829 L867.705947,71.4994829 L867.705947,51.7104447 C860.92795,49.2368149 854.846756,48 849.462366,48 C841.987565,48 836.207264,49.6649431 832.121461,52.9948294 C828.035659,56.3247156 825.644357,60.8438469 824.947553,66.5522234 C824.567479,69.0258532 824.345768,77.0492933 824.282423,90.622544 L824.282423,90.622544 L815.065613,90.622544 L815.065613,112.694933 L824.282423,112.694933 L824.282423,194.134436 L850.222515,194.134436 Z M905.048277,194.134436 L905.048277,50.663909 L879.108185,50.663909 L879.108185,194.134436 L905.048277,194.134436 Z M977.167435,196.798345 C987.239412,196.798345 996.456221,194.403999 1004.81786,189.615305 C1013.1795,184.826612 1019.7833,178.182696 1024.62925,169.683557 C1029.4752,161.184419 1031.89818,152.051017 1031.89818,142.283351 C1031.89818,132.579111 1029.49104,123.540848 1024.67676,115.168563 C1019.86248,106.796277 1013.16367,100.168218 1004.58032,95.2843847 C995.996964,90.4005515 986.827664,87.958635 977.072416,87.958635 C963.579767,87.958635 951.63909,92.6521889 941.250384,102.039297 C929.404725,112.821786 923.481896,126.299897 923.481896,142.47363 C923.481896,157.569114 928.723758,170.397104 939.207483,180.957601 C949.691208,191.518097 962.344525,196.798345 977.167435,196.798345 Z M977.357472,172.632885 C969.249214,172.632885 962.550399,169.842123 957.261027,164.2606 C951.971655,158.679076 949.326969,151.38504 949.326969,142.37849 C949.326969,133.625646 952.003328,126.442606 957.356046,120.829369 C962.708763,115.216132 969.407578,112.409514 977.452491,112.409514 C985.687441,112.409514 992.449601,115.184419 997.738973,120.73423 C1003.02834,126.28404 1005.67303,133.498794 1005.67303,142.37849 C1005.67303,151.258187 1002.98084,158.52051 997.596445,164.16546 C992.212055,169.81041 985.46573,172.632885 977.357472,172.632885 Z M1095.08558,194.134436 L1117.79504,135.14788 L1139.83937,194.134436 L1156.27759,194.134436 L1194,90.622544 L1168.43998,90.622544 L1147.6309,148.847983 L1125.68159,90.622544 L1110.19355,90.622544 L1087.76915,149.513961 L1066.96006,90.622544 L1041.59008,90.622544 L1078.83739,194.134436 L1095.08558,194.134436 Z" id="openflow" fill-rule="nonzero"></path>
        </g>
    </g>
</svg>