<?xml version="1.0" encoding="UTF-8"?>
<svg width="800px" height="800px" viewBox="0 0 800 800" version="1.1" xmlns="http://www.w3.org/2000/svg" xmlns:xlink="http://www.w3.org/1999/xlink">
    <!-- Generator: Sketch 63.1 (92452) - https://sketch.com -->
    <title>OF W</title>
    <desc>Created with Sketch.</desc>
    <g id="OF-W" stroke="none" stroke-width="1" fill="none" fill-rule="evenodd">
        <path d="M640,400 C640,532.54834 532.54834,640 400,640 C340.925882,640 286.83673,618.656825 245.023067,583.260998 L273.426054,554.85947 C307.903363,583.07292 351.974916,600 400,600 C510.45695,600 600,510.45695 600,400 C600,351.974916 583.07292,307.903363 554.85947,273.426054 L583.260998,245.023067 C618.656825,286.83673 640,340.925882 640,400 Z M400,160 C459.074118,160 513.16327,181.343175 554.976933,216.739002 L526.574947,245.141348 C492.097489,216.927408 448.025548,200 400,200 C296.293159,200 211.022192,278.933362 200.98754,379.999646 L391.716,380 L351.716,420 L200.987639,420.001356 C204.981607,460.225458 220.893148,496.943626 245.141348,526.574947 L216.739002,554.976933 C181.343175,513.16327 160,459.074118 160,400 C160,267.45166 267.45166,160 400,160 Z" id="Combined-Shape" fill="#2C2C64"></path>
    </g>
</svg>